HIERARCHY
ROOT Hips
{
 OFFSET 0.000000 0.000000 0.000000
 CHANNELS 6 Xposition Yposition Zposition Yrotation Xrotation Zrotation
 JOINT Chest
 {
  OFFSET 0.000000 12.953391 -0.028419
  CHANNELS 3 Yrotation Xrotation Zrotation
  JOINT Chest2
  {
   OFFSET 0.000000 10.280254 0.051622
   CHANNELS 3 Yrotation Xrotation Zrotation
   JOINT Chest3
   {
    OFFSET 0.000000 9.287180 0.000000
    CHANNELS 3 Yrotation Xrotation Zrotation
    JOINT Chest4
    {
     OFFSET 0.000000 9.287180 0.000000
     CHANNELS 3 Yrotation Xrotation Zrotation
     JOINT Neck
     {
      OFFSET 0.000000 13.296264 0.000000
      CHANNELS 3 Yrotation Xrotation Zrotation
      JOINT Head
      {
       OFFSET 0.000000 8.959264 0.099003
       CHANNELS 3 Yrotation Xrotation Zrotation
       End Site
       {
        OFFSET 0.000000 17.121337 0.039303
       }
      }
     }
     JOINT RightCollar
     {
      OFFSET -3.193511 7.451388 0.000000
      CHANNELS 3 Yrotation Xrotation Zrotation
      JOINT RightShoulder
      {
       OFFSET -15.792092 0.000000 0.000000
       CHANNELS 3 Yrotation Xrotation Zrotation
       JOINT RightElbow
       {
        OFFSET -31.151839 0.000000 0.000000
        CHANNELS 3 Yrotation Xrotation Zrotation
        JOINT RightWrist
        {
         OFFSET -25.536298 0.000000 0.002321
         CHANNELS 3 Yrotation Xrotation Zrotation
         End Site
         {
          OFFSET -19.133213 0.000000 0.000000
         }
        }
       }
      }
     }
     JOINT LeftCollar
     {
      OFFSET 3.193511 7.451388 0.000000
      CHANNELS 3 Yrotation Xrotation Zrotation
      JOINT LeftShoulder
      {
       OFFSET 15.792092 0.000000 0.000000
       CHANNELS 3 Yrotation Xrotation Zrotation
       JOINT LeftElbow
       {
        OFFSET 31.151839 0.000000 0.000000
        CHANNELS 3 Yrotation Xrotation Zrotation
        JOINT LeftWrist
        {
         OFFSET 25.536298 0.000000 0.002321
         CHANNELS 3 Yrotation Xrotation Zrotation
         End Site
         {
          OFFSET 19.133213 0.000000 0.000000
         }
        }
       }
      }
     }
    }
   }
  }
 }
 JOINT RightHip
 {
  OFFSET -10.745749 0.139252 0.014209
  CHANNELS 3 Yrotation Xrotation Zrotation
  JOINT RightKnee
  {
   OFFSET 0.000000 -43.743899 -0.006071
   CHANNELS 3 Yrotation Xrotation Zrotation
   JOINT RightAnkle
   {
    OFFSET 0.000000 -43.214199 0.089931
    CHANNELS 3 Yrotation Xrotation Zrotation
    JOINT RightToe
    {
     OFFSET 0.000000 -9.699830 19.151588
     CHANNELS 3 Yrotation Xrotation Zrotation
     End Site
     {
      OFFSET 0.000000 -1.292898 4.893873
     }
    }
   }
  }
 }
 JOINT LeftHip
 {
  OFFSET 10.745749 0.139252 0.014209
  CHANNELS 3 Yrotation Xrotation Zrotation
  JOINT LeftKnee
  {
   OFFSET 0.000000 -43.743899 -0.006071
   CHANNELS 3 Yrotation Xrotation Zrotation
   JOINT LeftAnkle
   {
    OFFSET 0.000000 -43.214199 0.089931
    CHANNELS 3 Yrotation Xrotation Zrotation
    JOINT LeftToe
    {
     OFFSET 0.000000 -9.699830 19.151588
     CHANNELS 3 Yrotation Xrotation Zrotation
     End Site
     {
      OFFSET 0.000000 -1.292898 4.893873
     }
    }
   }
  }
 }
}
MOTION
Frames: 9
Frame Time: 0.016667
-4.177906 97.726538 61.173809 69.163877 3.928292 -9.644865 -4.260390 9.427779 -6.972489 -1.744499 4.253294 -3.001024 -1.744463 4.253247 -3.001002 -1.286838 3.198583 -2.237562 4.541186 15.929008 -9.915217 11.920288 -5.159035 -20.028732 5.451771 -8.393439 -0.500403 -12.921784 -33.233816 36.451439 -9.326298 9.303742 -14.586658 0.257126 14.455409 -10.374464 -4.771683 -5.277967 -4.057634 10.207166 -19.022517 -40.726649 4.287468 -9.990874 5.400116 10.032973 -8.078814 10.156421 -12.906647 -2.337903 -0.658983 -0.545113 26.429588 0.285402 -3.572304 1.768048 5.684499 -2.003164 -27.072896 8.025227 6.705602 -30.536674 1.353114 6.977640 33.817975 1.563824 -3.291973 -11.229368 2.014463 0.095511 1.089246 -0.125159
-1.964706 97.811008 61.604463 70.735085 3.729246 -9.837456 -4.265864 9.513433 -6.875232 -1.747560 4.290616 -2.956875 -1.747560 4.290616 -2.956875 -1.289299 3.226532 -2.204351 4.529021 16.001561 -9.867718 11.868540 -5.037751 -19.924767 5.433711 -8.266262 -0.474879 -12.948335 -33.139520 36.243314 -9.116952 9.041927 -14.480202 0.414961 14.418060 -10.757749 -4.733398 -5.047323 -4.096560 10.272388 -19.113376 -40.820578 4.360813 -10.188440 5.388335 9.996309 -7.999737 10.198930 -12.211287 -2.371448 -1.040244 -1.971641 28.795517 0.063488 -2.912879 5.153972 6.092735 -2.474243 -31.346489 8.802222 7.625473 -29.495532 0.339809 5.863479 29.551819 1.868501 -3.059850 -11.251149 2.186773 0.000000 -0.000000 0.000000
0.328159 97.662053 61.975736 72.033979 3.271578 -10.024148 -4.154877 9.694933 -6.786922 -1.697386 4.368954 -2.918026 -1.697443 4.369022 -2.918046 -1.251641 3.285031 -2.175351 4.506497 16.078133 -9.776697 11.782818 -4.919838 -19.736047 5.349303 -8.075492 -0.467158 -12.583014 -33.040410 35.778790 -9.139851 8.507694 -14.365590 0.485790 14.354534 -10.923325 -4.878850 -4.743273 -4.054442 10.432927 -19.151697 -40.844900 4.481525 -10.499829 5.322049 9.952937 -7.896049 10.187646 -11.184204 -2.831627 -1.405297 -3.428825 32.534459 -0.536992 -1.705962 8.526537 6.430602 -2.889698 -35.036387 9.821755 7.754764 -28.528441 -0.370448 4.499298 26.999231 1.688004 -3.306520 -8.833882 4.176432 -0.000000 0.000000 0.000000
2.681996 97.320071 62.292248 73.137387 2.631940 -10.220311 -3.973721 9.935428 -6.689754 -1.615376 4.472346 -2.876161 -1.615426 4.472400 -2.876172 -1.189933 3.362051 -2.144215 4.481057 16.154183 -9.659885 11.683307 -4.807705 -19.499153 5.218200 -7.901009 -0.478760 -12.023696 -32.955159 35.201019 -9.262169 7.933551 -14.299078 0.504246 14.277735 -10.988016 -5.100011 -4.447915 -3.949613 10.675256 -19.130395 -40.837216 4.608044 -10.887587 5.238795 9.906475 -7.790121 10.144955 -9.924590 -3.693665 -1.767256 -4.879871 37.296668 -1.392146 -0.122199 11.995510 6.698024 -3.139300 -37.867871 10.855620 7.590171 -27.532151 -1.003692 2.928791 25.696259 1.374950 -3.694339 -5.141050 7.104184 0.000000 -0.000000 -0.000000
5.021200 96.809140 62.532367 74.169431 2.024027 -10.345916 -3.834975 10.128160 -6.594501 -1.552908 4.555149 -2.834917 -1.552908 4.555149 -2.834917 -1.142926 3.423673 -2.113486 4.475020 16.194312 -9.566434 11.634011 -4.752233 -19.318549 5.057899 -7.998351 -0.533173 -11.661026 -32.862592 34.870478 -9.191749 7.732222 -14.433188 0.472754 14.154704 -11.112656 -5.154137 -4.439111 -3.793606 10.938632 -18.956444 -40.821559 4.716325 -11.277036 5.188528 9.881578 -7.768245 10.075568 -8.734721 -5.025829 -2.156996 -5.838681 42.350571 -2.145787 1.271465 15.826254 6.778043 -2.612428 -37.577427 11.329033 7.505380 -26.666983 -1.734290 1.411869 25.639837 1.109663 -3.601116 -2.947048 9.744882 0.000000 -0.000000 -0.000000
7.337041 96.045719 62.672566 75.079404 1.493018 -10.355291 -3.761079 10.216452 -6.499936 -1.520839 4.592610 -2.793810 -1.520799 4.592618 -2.793842 -1.118955 3.451523 -2.082844 4.508385 16.185107 -9.525136 11.683430 -4.769425 -19.255446 4.808504 -8.641811 -0.695739 -11.579608 -32.721748 34.908919 -8.781682 8.161536 -14.879203 0.347825 13.947507 -11.346552 -4.891053 -4.988809 -3.550197 11.202017 -18.390013 -40.803129 4.844841 -11.761628 5.154871 9.897961 -7.892963 9.950996 -7.490861 -7.027049 -2.723102 -5.979765 47.730104 -2.453454 2.255848 21.060574 6.708482 -0.431566 -32.126278 11.478407 7.754387 -26.027785 -2.719214 -0.024076 27.256505 0.979517 -2.806994 -3.743469 11.808164 0.000000 0.000000 0.000000
9.638250 95.113349 62.736373 75.915524 0.988821 -10.289280 -3.731460 10.258448 -6.413937 -1.508982 4.610238 -2.756002 -1.508939 4.610276 -2.756056 -1.110263 3.464634 -2.054570 4.561169 16.141458 -9.508007 11.782889 -4.841992 -19.248623 4.536024 -9.556785 -0.913058 -11.702341 -32.586765 35.189952 -8.179876 8.990119 -15.480068 0.175270 13.699751 -11.645948 -4.467113 -5.829104 -3.267332 11.476592 -17.669857 -40.753668 4.955550 -12.248331 5.157405 9.941510 -8.101134 9.798420 -6.279277 -9.487478 -3.376008 -5.328838 53.390791 -2.269071 3.118199 26.693836 6.607204 2.745713 -23.645580 11.327710 8.082687 -25.512118 -3.802798 -1.396996 30.123240 0.838881 -1.713218 -6.122130 13.609302 0.000000 -0.000000 -0.000000
11.875417 94.286737 62.772740 76.949018 0.581564 -10.195428 -3.794606 10.320335 -6.365557 -1.537140 4.638131 -2.732440 -1.537140 4.638131 -2.732440 -1.131474 3.485574 -2.036536 4.595008 16.070630 -9.480322 11.849455 -4.970634 -19.220610 4.434820 -10.174921 -1.029207 -12.171542 -32.591092 35.690975 -7.538649 9.888141 -16.000968 0.094092 13.505814 -12.026528 -4.097534 -6.427522 -3.074463 11.761238 -17.421777 -40.668592 4.895994 -12.386421 5.301618 9.979972 -8.292225 9.706465 -5.754886 -11.885088 -3.756881 -3.951062 58.488179 -1.709522 3.819376 29.964615 6.320941 4.701164 -15.915998 10.254148 8.085767 -24.986343 -4.673574 -2.550646 32.947047 0.518419 -0.901049 -8.591548 15.074169 0.000000 -0.000000 -0.000000
14.019125 93.640733 62.798544 78.358268 0.300968 -10.059705 -4.017588 10.432162 -6.388046 -1.633681 4.690868 -2.736019 -1.633724 4.690791 -2.735939 -1.203619 3.525477 -2.038209 4.597572 15.961901 -9.411849 11.852371 -5.182650 -19.113537 4.639028 -10.192275 -0.940883 -13.221798 -32.875793 36.499327 -6.750171 10.849910 -16.416125 0.202710 13.379211 -12.578207 -3.832873 -6.536081 -3.030159 12.174844 -18.111941 -40.573712 4.547400 -11.877649 5.699267 9.991545 -8.441857 9.718219 -6.300205 -14.088227 -3.719135 -1.562386 62.951179 -0.584204 3.970363 29.327461 5.420606 3.909586 -9.654596 7.265656 7.457859 -24.508247 -5.179140 -3.416622 35.499479 -0.126613 -0.572267 -10.766578 16.196259 -0.000000 0.000000 0.000000
